# xmcd
#
# Track frame offsets:
#	150
#	17765
#	40514
#	60302
#	76462
#	93844
#	110964
#	129530
#	147543
#	165572
#	178399
#	192595
#	214169
#	232773
#	249269
#	266497
#	285784
#	307208
#
# Disc length: 4384 seconds
#
# Revision: 1
# Processed by: cddbd v1.4PL0 Copyright (c) Steve Scherf et al.
# Submitted via: MusicWizard 6.0.0
#
DISCID=fb111e12
DTITLE=Various Artist - Lovesongs - Slow Music Vol. 1
DYEAR=1900
DGENRE=Blues
TTITLE0=Boyz II Men - i´ll make love to you
TTITLE1=wilson phillips - goodby carmen
TTITLE2=zuchero - senza unna donna
TTITLE3=the housemartins - caravan of love
TTITLE4=George Michael - A Different Corner
TTITLE5=bonnie bianco and pierre cosso - stay
TTITLE6=purple schulz - kleine seen
TTITLE7=gregory abbott - shake you dow
TTITLE8=marvin gaye - sexual healin
TTITLE9=ben e king - stand by me
TTITLE10=the real thin - you to me are everythin
TTITLE11=sinead o connor - nothing compares to you
TTITLE12=michael bolton - how am i supposed to you
TTITLE13=them - it´s all over now, baby blue
TTITLE14=art garfunkel - bright eyes
TTITLE15=richard marx - right here waiting
TTITLE16=toto - i won´t hold you back
TTITLE17=genesis and Phil collins - in to deep
EXTD=
EXTT0=
EXTT1=
EXTT2=
EXTT3=
EXTT4=
EXTT5=
EXTT6=
EXTT7=
EXTT8=
EXTT9=
EXTT10=
EXTT11=
EXTT12=
EXTT13=
EXTT14=
EXTT15=
EXTT16=
EXTT17=
PLAYORDER=
